# xmcd CD database file
#
# Track frame offsets:
#	150
#	5775
#	15374
#	21900
#	30702
#	46200
#	62475
#	91575
#	113325
#	123900
#	134399
#	147975
#	184350
#	190650
#	204225
#	215850
#	230475
#
# Disc length: 3536 seconds
#
# Revision: 0
# Processed by: cddbd v1.5.2PL0 Copyright (c) Steve Scherf et al.
# Submitted via: CDex 1.70beta2
#
DISCID=e10dce11
DTITLE=Octurn - Octurn "7eyes" CD2
DYEAR=2009
DGENRE=Jazz
TTITLE0=ronny# 2
TTITLE1=ives# 5
TTITLE2=walk# 0
TTITLE3=walk# 1
TTITLE4=ives# 1
TTITLE5=lhasa# 2
TTITLE6=ives# 7
TTITLE7=walk# 2
TTITLE8=walk# 6
TTITLE9=jung# 2
TTITLE10=jung# 3
TTITLE11=boulevard carnot
TTITLE12=rue roussel
TTITLE13=son# 2
TTITLE14=walk# 4
TTITLE15=walk# 5
TTITLE16=Ives# 3
EXTD=YEAR: 2009
EXTT0=
EXTT1=
EXTT2=
EXTT3=
EXTT4=
EXTT5=
EXTT6=
EXTT7=
EXTT8=
EXTT9=
EXTT10=
EXTT11=
EXTT12=
EXTT13=
EXTT14=
EXTT15=
EXTT16=
PLAYORDER=
